<?xml version="1.0" standalone="no"?>
<!DOCTYPE svg PUBLIC "-//W3C//DTD SVG 20010904//EN"
 "http://www.w3.org/TR/2001/REC-SVG-20010904/DTD/svg10.dtd">
<svg version="1.0" xmlns="http://www.w3.org/2000/svg"
 width="512.000000pt" height="512.000000pt" viewBox="0 0 512.000000 512.000000"
 preserveAspectRatio="xMidYMid meet">
<metadata>
Created by potrace 1.11, written by Peter Selinger 2001-2013
</metadata>
<g transform="translate(0.000000,512.000000) scale(0.100000,-0.100000)"
fill="#000000" stroke="none">
<path d="M386 5104 c-176 -43 -329 -196 -371 -375 -13 -56 -15 -327 -15 -2169
0 -2316 -4 -2169 61 -2291 40 -74 134 -168 208 -208 122 -65 -25 -61 2291 -61
2316 0 2169 -4 2291 61 74 40 168 134 208 208 65 122 61 -25 61 2291 0 1842
-2 2113 -15 2169 -43 181 -195 333 -376 376 -94 22 -4251 21 -4343 -1z m2002
-1431 l-3 -168 -677 -3 -678 -2 0 -390 0 -390 605 0 605 0 0 -165 0 -165 -605
0 -605 0 0 -395 0 -395 680 0 680 0 0 -165 0 -165 -900 0 -900 0 0 1285 0
1285 900 0 900 0 -2 -167z m950 -823 c123 -168 226 -308 230 -312 4 -3 111
135 237 308 l230 314 233 0 c223 0 233 -1 220 -18 -7 -10 -161 -218 -343 -462
-181 -244 -329 -448 -327 -452 1 -5 162 -222 357 -483 l354 -475 -234 0 -234
0 -120 163 c-67 89 -177 237 -245 329 l-124 167 -243 -329 -243 -330 -234 0
c-184 0 -232 3 -226 13 4 6 166 223 360 480 l353 468 -338 452 c-185 249 -340
458 -345 465 -6 10 39 12 225 10 l233 -3 224 -305z"/>
</g>
</svg>
